<svg baseProfile="full" height="3800" version="1.1" width="1835" xmlns="http://www.w3.org/2000/svg" xmlns:ev="http://www.w3.org/2001/xml-events" xmlns:xlink="http://www.w3.org/1999/xlink"><defs><marker id="id28" markerHeight="15" markerWidth="15" orient="-90" refX="9.5" refY="5"><path d="M 0 0 L 10 5 L 0 10 L 2.5 5 Z" /></marker><marker id="id29" markerHeight="15" markerWidth="15" orient="-90" refX="9.5" refY="5"><path d="M 0 0 L 10 5 L 0 10 L 2.5 5 Z" /></marker><marker id="id30" markerHeight="15" markerWidth="15" orient="auto" refX="9.5" refY="5"><path d="M 0 0 L 10 5 L 0 10 L 2.5 5 Z" /></marker><marker id="id31" markerHeight="15" markerWidth="15" orient="-90" refX="9.5" refY="5"><path d="M 0 0 L 10 5 L 0 10 L 2.5 5 Z" /></marker><marker id="id32" markerHeight="15" markerWidth="15" orient="-90" refX="9.5" refY="5"><path d="M 0 0 L 10 5 L 0 10 L 2.5 5 Z" /></marker><marker id="id33" markerHeight="15" markerWidth="15" orient="-90" refX="9.5" refY="5"><path d="M 0 0 L 10 5 L 0 10 L 2.5 5 Z" /></marker><marker id="id34" markerHeight="15" markerWidth="15" orient="-90" refX="9.5" refY="5"><path d="M 0 0 L 10 5 L 0 10 L 2.5 5 Z" /></marker><marker id="id35" markerHeight="15" markerWidth="15" orient="-90" refX="9.5" refY="5"><path d="M 0 0 L 10 5 L 0 10 L 2.5 5 Z" /></marker></defs><text fill="black" font-size="20" x="100" y="150.0">Resturant_Branch</text><rect fill="none" height="50" stroke="black" width="150" x="100" y="175.0" /><text fill="black" font-size="20" x="127.5" y="200.0">Branch_ID</text><line stroke="black" stroke-width="2" x1="127.5" x2="222.5" y1="213.5" y2="213.5" /><rect fill="none" height="50" stroke="black" width="150" x="250" y="175.0" /><text fill="black" font-size="20" x="288.0" y="200.0">Address</text><rect fill="none" height="50" stroke="black" width="150" x="400" y="175.0" /><text fill="black" font-size="20" x="422.0" y="200.0">Contact_No</text><rect fill="none" height="50" stroke="black" width="150" x="550" y="175.0" /><text fill="black" font-size="20" x="570.0" y="200.0">Manager_ID</text><text fill="black" font-size="20" x="100" y="325.0">Staff_Member</text><rect fill="none" height="50" stroke="black" width="150" x="100" y="350.0" /><text fill="black" font-size="20" x="139.0" y="375.0">Staff_ID</text><line stroke="black" stroke-width="2" x1="139.0" x2="211.0" y1="388.5" y2="388.5" /><rect fill="none" height="50" stroke="black" width="150" x="250" y="350.0" /><text fill="black" font-size="20" x="276.5" y="375.0">Full_Name</text><rect fill="none" height="50" stroke="black" width="178" x="400" y="350.0" /><text fill="black" font-size="20" x="420.0" y="375.0">Monthly_Salary</text><rect fill="none" height="50" stroke="black" width="150" x="578" y="350.0" /><text fill="black" font-size="20" x="634.5" y="375.0">Age</text><rect fill="none" height="50" stroke="black" width="157" x="728" y="350.0" /><text fill="black" font-size="20" x="748.0" y="375.0">Joining_Date</text><rect fill="none" height="50" stroke="black" width="150" x="885" y="350.0" /><text fill="black" font-size="20" x="939.5" y="375.0">Role</text><rect fill="none" height="50" stroke="black" width="150" x="1035" y="350.0" /><text fill="black" font-size="20" x="1078.5" y="375.0">Region</text><rect fill="none" height="50" stroke="black" width="150" x="1185" y="350.0" /><text fill="black" font-size="20" x="1243.0" y="375.0">City</text><rect fill="none" height="50" stroke="black" width="150" x="1335" y="350.0" /><text fill="black" font-size="20" x="1362.5" y="375.0">Branch_ID</text><text fill="black" font-size="20" x="100" y="500.0">Customer</text><rect fill="none" height="50" stroke="black" width="186" x="100" y="525.0" /><text fill="black" font-size="20" x="120.0" y="550.0">Customer_Code</text><line stroke="black" stroke-width="2" x1="120.0" x2="266.0" y1="563.5" y2="563.5" /><rect fill="none" height="50" stroke="black" width="150" x="286" y="525.0" /><text fill="black" font-size="20" x="334.5" y="550.0">Name</text><rect fill="none" height="50" stroke="black" width="150" x="436" y="525.0" /><text fill="black" font-size="20" x="458.0" y="550.0">Contact_No</text><text fill="black" font-size="20" x="100" y="675.0">Delivery_Boy</text><rect fill="none" height="50" stroke="black" width="150" x="100" y="700.0" /><text fill="black" font-size="20" x="123.5" y="725.0">Delivery_ID</text><line stroke="black" stroke-width="2" x1="123.5" x2="226.5" y1="738.5" y2="738.5" /><rect fill="none" height="50" stroke="black" width="150" x="250" y="700.0" /><text fill="black" font-size="20" x="298.5" y="725.0">Name</text><rect fill="none" height="50" stroke="black" width="150" x="400" y="700.0" /><text fill="black" font-size="20" x="420.0" y="725.0">Contact_NO</text><text fill="black" font-size="20" x="100" y="850.0">Order</text><rect fill="none" height="50" stroke="black" width="150" x="100" y="875.0" /><text fill="black" font-size="20" x="134.0" y="900.0">Order_ID</text><line stroke="black" stroke-width="2" x1="134.0" x2="216.0" y1="913.5" y2="913.5" /><rect fill="none" height="50" stroke="black" width="150" x="250" y="875.0" /><text fill="black" font-size="20" x="272.5" y="900.0">Order_Date</text><rect fill="none" height="50" stroke="black" width="150" x="400" y="875.0" /><text fill="black" font-size="20" x="422.0" y="900.0">Order_Time</text><rect fill="none" height="50" stroke="black" width="150" x="550" y="875.0" /><text fill="black" font-size="20" x="585.0" y="900.0">Total_Bill</text><rect fill="none" height="50" stroke="black" width="197" x="700" y="875.0" /><text fill="black" font-size="20" x="720.0" y="900.0">Delivery_Address</text><rect fill="none" height="50" stroke="black" width="186" x="897" y="875.0" /><text fill="black" font-size="20" x="917.0" y="900.0">Customer_Code</text><rect fill="none" height="50" stroke="black" width="150" x="1083" y="875.0" /><text fill="black" font-size="20" x="1106.5" y="900.0">Delivery_ID</text><text fill="black" font-size="20" x="100" y="1025.0">Menu_Item</text><rect fill="none" height="50" stroke="black" width="150" x="100" y="1050.0" /><text fill="black" font-size="20" x="126.0" y="1075.0">Item_Code</text><line stroke="black" stroke-width="2" x1="126.0" x2="224.0" y1="1088.5" y2="1088.5" /><rect fill="none" height="50" stroke="black" width="150" x="250" y="1050.0" /><text fill="black" font-size="20" x="279.0" y="1075.0">Unit_Price</text><rect fill="none" height="50" stroke="black" width="150" x="400" y="1050.0" /><text fill="black" font-size="20" x="423.5" y="1075.0">Item_Name</text><rect fill="none" height="50" stroke="black" width="150" x="550" y="1050.0" /><text fill="black" font-size="20" x="584.5" y="1075.0">Category</text><text fill="black" font-size="20" x="100" y="1200.0">Offers</text><rect fill="none" height="50" stroke="black" width="150" x="100" y="1225.0" /><text fill="black" font-size="20" x="127.5" y="1250.0">Branch_ID</text><rect fill="none" height="50" stroke="black" width="150" x="250" y="1225.0" /><text fill="black" font-size="20" x="276.0" y="1250.0">Item_Code</text><text fill="black" font-size="20" x="100" y="1375.0">Contains</text><rect fill="none" height="50" stroke="black" width="150" x="100" y="1400.0" /><text fill="black" font-size="20" x="134.0" y="1425.0">Order_ID</text><rect fill="none" height="50" stroke="black" width="150" x="250" y="1400.0" /><text fill="black" font-size="20" x="276.0" y="1425.0">Item_Code</text><rect fill="none" height="50" stroke="black" width="150" x="400" y="1400.0" /><text fill="black" font-size="20" x="437.5" y="1425.0">Quantity</text><polyline fill="none" marker-start="url(#id28)" points="145.0,225.0 145.0,300.5 1433.0,300.5 1433.0,350.0" stroke="black" stroke-width="2" /><polyline fill="none" marker-start="url(#id29)" points="173.0,225.0 173.0,310.5 77,310.5 77,1185.5 159.0,1185.5 159.0,1225.0" stroke="black" stroke-width="2" /><polyline fill="none" marker-end="url(#id30)" points="660.0,225.0 660.0,300.5 168.0,300.5 168.0,350.0" stroke="black" stroke-width="2" /><polyline fill="none" marker-start="url(#id31)" points="233.0,575.0 233.0,646.5 581,646.5 581,821.5 992.0,821.5 992.0,875.0" stroke="black" stroke-width="2" /><polyline fill="none" marker-start="url(#id32)" points="140.0,750.0 140.0,836.5 1142.0,836.5 1142.0,875.0" stroke="black" stroke-width="2" /><polyline fill="none" marker-start="url(#id33)" points="160.0,925.0 160.0,981.5 31,981.5 31,1331.5 199.0,1331.5 199.0,1400.0" stroke="black" stroke-width="2" /><polyline fill="none" marker-start="url(#id34)" points="197.0,1100.0 197.0,1171.5 360.0,1171.5 360.0,1225.0" stroke="black" stroke-width="2" /><polyline fill="none" marker-start="url(#id35)" points="160.0,1100.0 160.0,1188.5 63,1188.5 63,1363.5 311.0,1363.5 311.0,1400.0" stroke="black" stroke-width="2" /></svg>