<svg baseProfile="full" height="3450" version="1.1" width="2122" xmlns="http://www.w3.org/2000/svg" xmlns:ev="http://www.w3.org/2001/xml-events" xmlns:xlink="http://www.w3.org/1999/xlink"><defs><marker id="id36" markerHeight="15" markerWidth="15" orient="-90" refX="9.5" refY="5"><path d="M 0 0 L 10 5 L 0 10 L 2.5 5 Z" /></marker><marker id="id37" markerHeight="15" markerWidth="15" orient="-90" refX="9.5" refY="5"><path d="M 0 0 L 10 5 L 0 10 L 2.5 5 Z" /></marker><marker id="id38" markerHeight="15" markerWidth="15" orient="auto" refX="9.5" refY="5"><path d="M 0 0 L 10 5 L 0 10 L 2.5 5 Z" /></marker><marker id="id39" markerHeight="15" markerWidth="15" orient="-90" refX="9.5" refY="5"><path d="M 0 0 L 10 5 L 0 10 L 2.5 5 Z" /></marker><marker id="id40" markerHeight="15" markerWidth="15" orient="-90" refX="9.5" refY="5"><path d="M 0 0 L 10 5 L 0 10 L 2.5 5 Z" /></marker><marker id="id41" markerHeight="15" markerWidth="15" orient="-90" refX="9.5" refY="5"><path d="M 0 0 L 10 5 L 0 10 L 2.5 5 Z" /></marker><marker id="id42" markerHeight="15" markerWidth="15" orient="auto" refX="9.5" refY="5"><path d="M 0 0 L 10 5 L 0 10 L 2.5 5 Z" /></marker></defs><text fill="black" font-size="20" x="100" y="150.0">Teacher</text><rect fill="none" height="50" stroke="black" width="150" x="100" y="175.0" /><text fill="black" font-size="20" x="124.0" y="200.0">Teacher_ID</text><line stroke="black" stroke-width="2" x1="124.0" x2="226.0" y1="213.5" y2="213.5" /><rect fill="none" height="50" stroke="black" width="150" x="250" y="175.0" /><text fill="black" font-size="20" x="298.5" y="200.0">Name</text><rect fill="none" height="50" stroke="black" width="150" x="400" y="175.0" /><text fill="black" font-size="20" x="450.0" y="200.0">Email</text><rect fill="none" height="50" stroke="black" width="150" x="550" y="175.0" /><text fill="black" font-size="20" x="596.0" y="200.0">Phone</text><rect fill="none" height="50" stroke="black" width="150" x="700" y="175.0" /><text fill="black" font-size="20" x="746.5" y="200.0">Salary</text><rect fill="none" height="50" stroke="black" width="150" x="850" y="175.0" /><text fill="black" font-size="20" x="891.5" y="200.0">Subject</text><rect fill="none" height="50" stroke="black" width="167" x="1000" y="175.0" /><text fill="black" font-size="20" x="1020.0" y="200.0">Supervisor_ID</text><text fill="black" font-size="20" x="100" y="325.0">Teaches</text><rect fill="none" height="50" stroke="black" width="150" x="100" y="350.0" /><text fill="black" font-size="20" x="124.0" y="375.0">Teacher_ID</text><rect fill="none" height="50" stroke="black" width="154" x="250" y="350.0" /><text fill="black" font-size="20" x="270.0" y="375.0">Class_Name</text><text fill="black" font-size="20" x="100" y="500.0">Class_Room</text><rect fill="none" height="50" stroke="black" width="154" x="100" y="525.0" /><text fill="black" font-size="20" x="120.0" y="550.0">Class_Name</text><line stroke="black" stroke-width="2" x1="120.0" x2="234.0" y1="563.5" y2="563.5" /><rect fill="none" height="50" stroke="black" width="150" x="254" y="525.0" /><text fill="black" font-size="20" x="287.5" y="550.0">Schedule</text><rect fill="none" height="50" stroke="black" width="150" x="404" y="525.0" /><text fill="black" font-size="20" x="425.0" y="550.0">Building_No</text><rect fill="none" height="50" stroke="black" width="150" x="554" y="525.0" /><text fill="black" font-size="20" x="588.0" y="550.0">Floor_No</text><rect fill="none" height="50" stroke="black" width="150" x="704" y="525.0" /><text fill="black" font-size="20" x="740.0" y="550.0">Capacity</text><text fill="black" font-size="20" x="100" y="675.0">Student</text><rect fill="none" height="50" stroke="black" width="174" x="100" y="700.0" /><text fill="black" font-size="20" x="120.0" y="725.0">Serial_Number</text><line stroke="black" stroke-width="2" x1="120.0" x2="254.0" y1="738.5" y2="738.5" /><rect fill="none" height="50" stroke="black" width="150" x="274" y="700.0" /><text fill="black" font-size="20" x="327.5" y="725.0">DOB</text><rect fill="none" height="50" stroke="black" width="150" x="424" y="700.0" /><text fill="black" font-size="20" x="464.0" y="725.0">Division</text><rect fill="none" height="50" stroke="black" width="150" x="574" y="700.0" /><text fill="black" font-size="20" x="615.5" y="725.0">Gender</text><rect fill="none" height="50" stroke="black" width="188" x="724" y="700.0" /><text fill="black" font-size="20" x="744.0" y="725.0">Prev_Cert_Copy</text><rect fill="none" height="50" stroke="black" width="162" x="912" y="700.0" /><text fill="black" font-size="20" x="932.0" y="725.0">School_Email</text><rect fill="none" height="50" stroke="black" width="150" x="1074" y="700.0" /><text fill="black" font-size="20" x="1130.5" y="725.0">Age</text><rect fill="none" height="50" stroke="black" width="189" x="1224" y="700.0" /><text fill="black" font-size="20" x="1244.0" y="725.0">Sibling_Discount</text><rect fill="none" height="50" stroke="black" width="192" x="1413" y="700.0" /><text fill="black" font-size="20" x="1433.0" y="725.0">Class_Name_FK</text><rect fill="none" height="50" stroke="black" width="167" x="1605" y="700.0" /><text fill="black" font-size="20" x="1625.0" y="725.0">Parent_ID_FK</text><text fill="black" font-size="20" x="100" y="850.0">Siblings</text><rect fill="none" height="50" stroke="black" width="165" x="100" y="875.0" /><text fill="black" font-size="20" x="120.0" y="900.0">Student_ID_A</text><rect fill="none" height="50" stroke="black" width="165" x="265" y="875.0" /><text fill="black" font-size="20" x="285.0" y="900.0">Student_ID_B</text><text fill="black" font-size="20" x="100" y="1025.0">Medical_Report</text><rect fill="none" height="50" stroke="black" width="150" x="100" y="1050.0" /><text fill="black" font-size="20" x="123.0" y="1075.0">Report_ID</text><line stroke="black" stroke-width="2" x1="123.0" x2="227.0" y1="1088.5" y2="1088.5" /><rect fill="none" height="50" stroke="black" width="150" x="250" y="1050.0" /><text fill="black" font-size="20" x="284.0" y="1075.0">Diseases</text><rect fill="none" height="50" stroke="black" width="150" x="400" y="1050.0" /><text fill="black" font-size="20" x="444.0" y="1075.0">Weight</text><rect fill="none" height="50" stroke="black" width="150" x="550" y="1050.0" /><text fill="black" font-size="20" x="594.5" y="1075.0">Length</text><rect fill="none" height="50" stroke="black" width="150" x="700" y="1050.0" /><text fill="black" font-size="20" x="736.0" y="1075.0">Allergies</text><rect fill="none" height="50" stroke="black" width="209" x="850" y="1050.0" /><text fill="black" font-size="20" x="870.0" y="1075.0">Student_Serial_FK</text><text fill="black" font-size="20" x="100" y="1200.0">Parent</text><rect fill="none" height="50" stroke="black" width="150" x="100" y="1225.0" /><text fill="black" font-size="20" x="130.0" y="1250.0">Parent_ID</text><line stroke="black" stroke-width="2" x1="130.0" x2="220.0" y1="1263.5" y2="1263.5" /><rect fill="none" height="50" stroke="black" width="150" x="250" y="1225.0" /><text fill="black" font-size="20" x="298.5" y="1250.0">Name</text><rect fill="none" height="50" stroke="black" width="150" x="400" y="1225.0" /><text fill="black" font-size="20" x="420.0" y="1250.0">Relationship</text><polyline fill="none" marker-start="url(#id36)" points="181.0,225.0 181.0,268.5 69,268.5 69,93.5 1120.5,93.5 1120.5,175.0" stroke="black" stroke-width="2" /><polyline fill="none" marker-start="url(#id37)" points="171.0,225.0 171.0,307.5 187.0,307.5 187.0,350.0" stroke="black" stroke-width="2" /><polyline fill="none" marker-end="url(#id38)" points="297.0,400.0 297.0,476.5 145.0,476.5 145.0,525.0" stroke="black" stroke-width="2" /><polyline fill="none" marker-start="url(#id39)" points="182.0,575.0 182.0,644.5 1539.0,644.5 1539.0,700.0" stroke="black" stroke-width="2" /><polyline fill="none" marker-start="url(#id40)" points="174.0,750.0 174.0,818.5 448,818.5 448,993.5 915.5,993.5 915.5,1050.0" stroke="black" stroke-width="2" /><polyline fill="none" marker-start="url(#id41)" points="214.0,750.0 214.0,816.5 219.5,816.5 219.5,875.0" stroke="black" stroke-width="2" /><polyline fill="none" marker-end="url(#id42)" points="1672.5,750.0 1672.5,802.5 1075,802.5 1075,1152.5 172.0,1152.5 172.0,1225.0" stroke="black" stroke-width="2" /></svg>