<svg baseProfile="full" height="2750" version="1.1" width="1685" xmlns="http://www.w3.org/2000/svg" xmlns:ev="http://www.w3.org/2001/xml-events" xmlns:xlink="http://www.w3.org/1999/xlink"><defs><marker id="id13" markerHeight="15" markerWidth="15" orient="-90" refX="9.5" refY="5"><path d="M 0 0 L 10 5 L 0 10 L 2.5 5 Z" /></marker><marker id="id14" markerHeight="15" markerWidth="15" orient="-90" refX="9.5" refY="5"><path d="M 0 0 L 10 5 L 0 10 L 2.5 5 Z" /></marker><marker id="id15" markerHeight="15" markerWidth="15" orient="-90" refX="9.5" refY="5"><path d="M 0 0 L 10 5 L 0 10 L 2.5 5 Z" /></marker><marker id="id16" markerHeight="15" markerWidth="15" orient="-90" refX="9.5" refY="5"><path d="M 0 0 L 10 5 L 0 10 L 2.5 5 Z" /></marker></defs><text fill="black" font-size="20" x="100" y="150.0">Office</text><rect fill="none" height="50" stroke="black" width="150" x="100" y="175.0" /><text fill="black" font-size="20" x="133.5" y="200.0">Office_ID</text><line stroke="black" stroke-width="2" x1="133.5" x2="216.5" y1="213.5" y2="213.5" /><rect fill="none" height="50" stroke="black" width="150" x="250" y="175.0" /><text fill="black" font-size="20" x="308.0" y="200.0">City</text><rect fill="none" height="50" stroke="black" width="150" x="400" y="175.0" /><text fill="black" font-size="20" x="448.0" y="200.0">Street</text><rect fill="none" height="50" stroke="black" width="150" x="550" y="175.0" /><text fill="black" font-size="20" x="596.0" y="200.0">House</text><rect fill="none" height="50" stroke="black" width="150" x="700" y="175.0" /><text fill="black" font-size="20" x="722.0" y="200.0">Contact_No</text><text fill="black" font-size="20" x="100" y="325.0">Owner</text><rect fill="none" height="50" stroke="black" width="150" x="100" y="350.0" /><text fill="black" font-size="20" x="122.5" y="375.0">National_ID</text><line stroke="black" stroke-width="2" x1="122.5" x2="227.5" y1="388.5" y2="388.5" /><rect fill="none" height="50" stroke="black" width="150" x="250" y="350.0" /><text fill="black" font-size="20" x="273.5" y="375.0">First_Name</text><rect fill="none" height="50" stroke="black" width="150" x="400" y="350.0" /><text fill="black" font-size="20" x="428.5" y="375.0">Mid_name</text><rect fill="none" height="50" stroke="black" width="150" x="550" y="350.0" /><text fill="black" font-size="20" x="575.5" y="375.0">Last_name</text><rect fill="none" height="50" stroke="black" width="216" x="700" y="350.0" /><text fill="black" font-size="20" x="720.0" y="375.0">Bacnk_Account_No</text><rect fill="none" height="50" stroke="black" width="150" x="916" y="350.0" /><text fill="black" font-size="20" x="949.5" y="375.0">Office_ID</text><text fill="black" font-size="20" x="100" y="500.0">Car</text><rect fill="none" height="50" stroke="black" width="150" x="100" y="525.0" /><text fill="black" font-size="20" x="143.5" y="550.0">Car_ID</text><line stroke="black" stroke-width="2" x1="143.5" x2="206.5" y1="563.5" y2="563.5" /><rect fill="none" height="50" stroke="black" width="150" x="250" y="525.0" /><text fill="black" font-size="20" x="273.5" y="550.0">Rent_Value</text><rect fill="none" height="50" stroke="black" width="150" x="400" y="525.0" /><text fill="black" font-size="20" x="422.0" y="550.0">Model_Year</text><rect fill="none" height="50" stroke="black" width="150" x="550" y="525.0" /><text fill="black" font-size="20" x="596.5" y="550.0">Status</text><rect fill="none" height="50" stroke="black" width="150" x="700" y="525.0" /><text fill="black" font-size="20" x="748.5" y="550.0">Brand</text><rect fill="none" height="50" stroke="black" width="159" x="850" y="525.0" /><text fill="black" font-size="20" x="870.0" y="550.0">Model_Name</text><rect fill="none" height="50" stroke="black" width="176" x="1009" y="525.0" /><text fill="black" font-size="20" x="1029.0" y="550.0">License_Image</text><rect fill="none" height="50" stroke="black" width="150" x="1185" y="525.0" /><text fill="black" font-size="20" x="1207.5" y="550.0">National_ID</text><text fill="black" font-size="20" x="100" y="675.0">Tenant</text><rect fill="none" height="50" stroke="black" width="150" x="100" y="700.0" /><text fill="black" font-size="20" x="122.5" y="725.0">National_ID</text><line stroke="black" stroke-width="2" x1="122.5" x2="227.5" y1="738.5" y2="738.5" /><rect fill="none" height="50" stroke="black" width="150" x="250" y="700.0" /><text fill="black" font-size="20" x="277.0" y="725.0">Mobile_No</text><rect fill="none" height="50" stroke="black" width="182" x="400" y="700.0" /><text fill="black" font-size="20" x="420.0" y="725.0">Driving_License</text><text fill="black" font-size="20" x="100" y="850.0">Rental_Transaction</text><rect fill="none" height="50" stroke="black" width="188" x="100" y="875.0" /><text fill="black" font-size="20" x="120.0" y="900.0">Transaction_ID</text><line stroke="black" stroke-width="2" x1="120.0" x2="268.0" y1="913.5" y2="913.5" /><rect fill="none" height="50" stroke="black" width="150" x="288" y="875.0" /><text fill="black" font-size="20" x="315.0" y="900.0">Start_Date</text><rect fill="none" height="50" stroke="black" width="150" x="438" y="875.0" /><text fill="black" font-size="20" x="475.0" y="900.0">Duration</text><rect fill="none" height="50" stroke="black" width="197" x="588" y="875.0" /><text fill="black" font-size="20" x="608.0" y="900.0">Payment_Method</text><rect fill="none" height="50" stroke="black" width="150" x="785" y="875.0" /><text fill="black" font-size="20" x="828.5" y="900.0">Car_ID</text><rect fill="none" height="50" stroke="black" width="150" x="935" y="875.0" /><text fill="black" font-size="20" x="957.5" y="900.0">National_ID</text><polyline fill="none" marker-start="url(#id13)" points="163.0,225.0 163.0,292.5 981.0,292.5 981.0,350.0" stroke="black" stroke-width="2" /><polyline fill="none" marker-start="url(#id14)" points="145.0,400.0 145.0,487.5 1285.0,487.5 1285.0,525.0" stroke="black" stroke-width="2" /><polyline fill="none" marker-start="url(#id15)" points="193.0,575.0 193.0,653.5 631,653.5 631,828.5 861.0,828.5 861.0,875.0" stroke="black" stroke-width="2" /><polyline fill="none" marker-start="url(#id16)" points="210.0,750.0 210.0,792.5 1044.0,792.5 1044.0,875.0" stroke="black" stroke-width="2" /></svg>