<svg baseProfile="full" height="2750" version="1.1" width="1552" xmlns="http://www.w3.org/2000/svg" xmlns:ev="http://www.w3.org/2001/xml-events" xmlns:xlink="http://www.w3.org/1999/xlink"><defs><marker id="id21" markerHeight="15" markerWidth="15" orient="-90" refX="9.5" refY="5"><path d="M 0 0 L 10 5 L 0 10 L 2.5 5 Z" /></marker><marker id="id22" markerHeight="15" markerWidth="15" orient="-90" refX="9.5" refY="5"><path d="M 0 0 L 10 5 L 0 10 L 2.5 5 Z" /></marker><marker id="id23" markerHeight="15" markerWidth="15" orient="auto" refX="9.5" refY="5"><path d="M 0 0 L 10 5 L 0 10 L 2.5 5 Z" /></marker><marker id="id24" markerHeight="15" markerWidth="15" orient="-90" refX="9.5" refY="5"><path d="M 0 0 L 10 5 L 0 10 L 2.5 5 Z" /></marker><marker id="id25" markerHeight="15" markerWidth="15" orient="-90" refX="9.5" refY="5"><path d="M 0 0 L 10 5 L 0 10 L 2.5 5 Z" /></marker><marker id="id26" markerHeight="15" markerWidth="15" orient="-90" refX="9.5" refY="5"><path d="M 0 0 L 10 5 L 0 10 L 2.5 5 Z" /></marker><marker id="id27" markerHeight="15" markerWidth="15" orient="auto" refX="9.5" refY="5"><path d="M 0 0 L 10 5 L 0 10 L 2.5 5 Z" /></marker></defs><text fill="black" font-size="20" x="100" y="150.0">Employee</text><rect fill="none" height="50" stroke="black" width="160" x="100" y="175.0" /><text fill="black" font-size="20" x="120.0" y="200.0">Employee_ID</text><line stroke="black" stroke-width="2" x1="120.0" x2="240.0" y1="213.5" y2="213.5" /><rect fill="none" height="50" stroke="black" width="150" x="260" y="175.0" /><text fill="black" font-size="20" x="286.5" y="200.0">Full_Name</text><rect fill="none" height="50" stroke="black" width="150" x="410" y="175.0" /><text fill="black" font-size="20" x="456.5" y="200.0">Salary</text><rect fill="none" height="50" stroke="black" width="150" x="560" y="175.0" /><text fill="black" font-size="20" x="610.5" y="200.0">Team</text><rect fill="none" height="50" stroke="black" width="150" x="710" y="175.0" /><text fill="black" font-size="20" x="738.0" y="200.0">Shift_Start</text><rect fill="none" height="50" stroke="black" width="150" x="860" y="175.0" /><text fill="black" font-size="20" x="891.5" y="200.0">Shift_End</text><text fill="black" font-size="20" x="100" y="325.0">Branch</text><rect fill="none" height="50" stroke="black" width="162" x="100" y="350.0" /><text fill="black" font-size="20" x="120.0" y="375.0">Branch_Code</text><line stroke="black" stroke-width="2" x1="120.0" x2="242.0" y1="388.5" y2="388.5" /><rect fill="none" height="50" stroke="black" width="152" x="262" y="350.0" /><text fill="black" font-size="20" x="282.0" y="375.0">Short_Name</text><rect fill="none" height="50" stroke="black" width="150" x="414" y="350.0" /><text fill="black" font-size="20" x="448.0" y="375.0">Floor_No</text><rect fill="none" height="50" stroke="black" width="150" x="564" y="350.0" /><text fill="black" font-size="20" x="585.0" y="375.0">Building_No</text><rect fill="none" height="50" stroke="black" width="150" x="714" y="350.0" /><text fill="black" font-size="20" x="772.0" y="375.0">City</text><rect fill="none" height="50" stroke="black" width="150" x="864" y="350.0" /><text fill="black" font-size="20" x="912.0" y="375.0">Street</text><rect fill="none" height="50" stroke="black" width="150" x="1014" y="350.0" /><text fill="black" font-size="20" x="1067.5" y="375.0">Area</text><text fill="black" font-size="20" x="100" y="500.0">Medical_Test</text><rect fill="none" height="50" stroke="black" width="150" x="100" y="525.0" /><text fill="black" font-size="20" x="127.0" y="550.0">Test_Code</text><line stroke="black" stroke-width="2" x1="127.0" x2="223.0" y1="563.5" y2="563.5" /><rect fill="none" height="50" stroke="black" width="150" x="250" y="525.0" /><text fill="black" font-size="20" x="274.5" y="550.0">Test_Name</text><rect fill="none" height="50" stroke="black" width="150" x="400" y="525.0" /><text fill="black" font-size="20" x="454.0" y="550.0">Cost</text><rect fill="none" height="50" stroke="black" width="183" x="550" y="525.0" /><text fill="black" font-size="20" x="570.0" y="550.0">Result_Duration</text><rect fill="none" height="50" stroke="black" width="150" x="733" y="525.0" /><text fill="black" font-size="20" x="760.5" y="550.0">Conditions</text><text fill="black" font-size="20" x="100" y="675.0">Visit_Record</text><rect fill="none" height="50" stroke="black" width="150" x="100" y="700.0" /><text fill="black" font-size="20" x="140.5" y="725.0">Visit_ID</text><line stroke="black" stroke-width="2" x1="140.5" x2="209.5" y1="738.5" y2="738.5" /><rect fill="none" height="50" stroke="black" width="150" x="250" y="700.0" /><text fill="black" font-size="20" x="279.5" y="725.0">Visit_Date</text><rect fill="none" height="50" stroke="black" width="150" x="400" y="700.0" /><text fill="black" font-size="20" x="429.0" y="725.0">Visit_Time</text><text fill="black" font-size="20" x="100" y="850.0">Patient</text><rect fill="none" height="50" stroke="black" width="150" x="100" y="875.0" /><text fill="black" font-size="20" x="128.5" y="900.0">Patient_ID</text><line stroke="black" stroke-width="2" x1="128.5" x2="221.5" y1="913.5" y2="913.5" /><rect fill="none" height="50" stroke="black" width="150" x="250" y="875.0" /><text fill="black" font-size="20" x="276.5" y="900.0">Full_Name</text><rect fill="none" height="50" stroke="black" width="150" x="400" y="875.0" /><text fill="black" font-size="20" x="441.5" y="900.0">Gender</text><rect fill="none" height="50" stroke="black" width="150" x="550" y="875.0" /><text fill="black" font-size="20" x="606.5" y="900.0">Age</text><rect fill="none" height="50" stroke="black" width="150" x="700" y="875.0" /><text fill="black" font-size="20" x="753.5" y="900.0">DOB</text><rect fill="none" height="50" stroke="black" width="150" x="850" y="875.0" /><text fill="black" font-size="20" x="877.0" y="900.0">Mobile_No</text><rect fill="none" height="50" stroke="black" width="202" x="1000" y="875.0" /><text fill="black" font-size="20" x="1020.0" y="900.0">Chronic_Diseases</text><polyline fill="none" marker-start="url(#id21)" points="202.0,225.0 202.0,281.5 47,281.5 47,106.5 195.0,106.5 195.0,175.0" stroke="black" stroke-width="2" /><polyline fill="none" marker-start="url(#id22)" points="196.0,225.0 196.0,265.5 204.0,265.5 204.0,350.0" stroke="black" stroke-width="2" /><polyline fill="none" marker-end="url(#id23)" points="215.0,225.0 215.0,311.5 180.0,311.5 180.0,350.0" stroke="black" stroke-width="2" /><polyline fill="none" marker-start="url(#id24)" points="180.0,400.0 180.0,490.5 86,490.5 86,665.5 169.0,665.5 169.0,700.0" stroke="black" stroke-width="2" /><polyline fill="none" marker-start="url(#id25)" points="176.0,400.0 176.0,446.5 151.0,446.5 151.0,525.0" stroke="black" stroke-width="2" /><polyline fill="none" marker-start="url(#id26)" points="151.0,575.0 151.0,645.5 144.0,645.5 144.0,700.0" stroke="black" stroke-width="2" /><polyline fill="none" marker-end="url(#id27)" points="150.0,750.0 150.0,818.5 179.0,818.5 179.0,875.0" stroke="black" stroke-width="2" /></svg>